<?xml version="1.0" standalone="no"?><!DOCTYPE svg PUBLIC "-//W3C//DTD SVG 1.1//EN" "http://www.w3.org/Graphics/SVG/1.1/DTD/svg11.dtd"><svg t="1645789032107" class="icon" viewBox="0 0 1024 1024" version="1.1" xmlns="http://www.w3.org/2000/svg" p-id="2250" xmlns:xlink="http://www.w3.org/1999/xlink" width="200" height="200"><defs><style type="text/css"></style></defs><path d="M888.471371 163.471483H132.720111c-38.196042 0-69.269938 31.073896-69.269937 69.269938V789.336746c0 38.182732 31.073896 69.256627 69.269937 69.256628h755.752284c38.196042 0 69.256627-31.073896 69.256627-69.256628V232.742445c-0.001024-38.197066-31.060585-69.270962-69.257651-69.270962z m13.261363 625.866287c0 7.313613-5.960036 13.260339-13.260339 13.260339H132.720111c-7.327947 0-13.260339-5.946726-13.260338-13.260339V232.742445c0-7.313613 5.933415-13.274673 13.260338-13.274673h755.752284c7.300302 0 13.260339 5.960036 13.260339 13.274673v556.595325z" fill="#3E3A39" p-id="2251"></path><path d="M559.25026 606.87219l-103.187163-51.56696 26.685523-38.824708a28.056506 28.056506 0 0 0 4.921817-15.857936v-81.956901c0-60.849505-48.640696-108.519558-110.734222-108.519557-62.065881 0-110.706577 47.670053-110.706577 108.519557v81.956901a28.067768 28.067768 0 0 0 5.16755 16.227559l27.204633 38.223687-107.698402 51.593581a27.990977 27.990977 0 0 0-15.913226 25.250036v52.01747c0 15.461692 12.522118 27.998144 27.998144 27.998144h343.739805c15.475003 0 27.998144-12.536452 27.998145-27.998144v-52.01747a27.995073 27.995073 0 0 0-15.476027-25.045259z m-40.520262 49.064585H230.985458v-6.383925l121.779896-58.347129a27.89678 27.89678 0 0 0 15.010159-18.237445 27.982786 27.982786 0 0 0-4.265506-23.24015l-41.286128-58.046106v-73.016335c0-29.446942 24.03366-52.523269 54.710288-52.523269 30.704273 0 54.737933 23.076327 54.737934 52.523269v73.262067l-40.001152 58.169997a27.987905 27.987905 0 0 0-4.046395 22.857216 28.031932 28.031932 0 0 0 14.600605 18.045979l116.502791 58.224263v6.711568zM637.229366 547.431552h113.769018c15.475003 0 27.998144-12.536452 27.998144-27.998145 0-15.461692-12.522118-27.998144-27.998144-27.998144H637.229366c-15.475003 0-27.998144 12.536452-27.998144 27.998144 0 15.461692 12.522118 27.998144 27.998144 27.998145zM815.387461 372.745453H637.229366c-15.475003 0-27.998144 12.536452-27.998144 27.998144 0 15.461692 12.522118 27.998144 27.998144 27.998144h178.158095c15.475003 0 27.998144-12.536452 27.998144-27.998144 0-15.461692-12.523141-27.998144-27.998144-27.998144zM815.387461 618.356088H637.229366c-15.475003 0-27.998144 12.536452-27.998144 27.998144 0 15.461692 12.522118 27.998144 27.998144 27.998145h178.158095c15.475003 0 27.998144-12.536452 27.998144-27.998145 0-15.461692-12.523141-27.998144-27.998144-27.998144z" fill="#3E3A39" p-id="2252"></path></svg>