<?xml version="1.0" standalone="no"?><!DOCTYPE svg PUBLIC "-//W3C//DTD SVG 1.1//EN" "http://www.w3.org/Graphics/SVG/1.1/DTD/svg11.dtd"><svg t="1643291248779" class="icon" viewBox="0 0 1024 1024" version="1.1" xmlns="http://www.w3.org/2000/svg" p-id="6709" xmlns:xlink="http://www.w3.org/1999/xlink" width="200" height="200"><defs><style type="text/css"></style></defs><path d="M704 341.333333h64a64 64 0 0 1 64 64v362.666667a64 64 0 0 1-64 64H256a64 64 0 0 1-64-64V405.333333a64 64 0 0 1 64-64h64v64h-64v362.666667h512V405.333333h-64v-64zM517.653333 124.629333l150.826667 150.826667-45.226667 45.269333-74.026666-74.005333v304.768h-64V247.616l-73.173334 73.130667-45.248-45.248 150.826667-150.848z" p-id="6710"></path></svg>