<?xml version="1.0" standalone="no"?><!DOCTYPE svg PUBLIC "-//W3C//DTD SVG 1.1//EN" "http://www.w3.org/Graphics/SVG/1.1/DTD/svg11.dtd"><svg t="1643285709526" class="icon" viewBox="0 0 1024 1024" version="1.1" xmlns="http://www.w3.org/2000/svg" p-id="4640" xmlns:xlink="http://www.w3.org/1999/xlink" width="200" height="200"><defs><style type="text/css"></style></defs><path d="M982.016 630.784q0 24.576-17.92 43.52t-49.664 18.944l-796.672 0q-29.696 0-49.152-16.896t-19.456-49.664l0-423.936q0-22.528 18.944-40.448t53.76-17.92l790.528 0q34.816 0 52.224 20.992t17.408 46.592l0 418.816zM836.608 228.352q-6.144 0-10.752 4.608t-4.608 11.776 4.608 11.264 10.752 4.096l79.872 0q6.144 0 10.752-4.096t4.608-11.264-4.608-11.776-10.752-4.608l-79.872 0zM835.584 299.008q-15.36 0-15.36 16.384 0 6.144 4.096 10.752t11.264 4.608l79.872 0q7.168 0 11.776-4.608t4.608-10.752q0-16.384-16.384-16.384l-79.872 0zM900.096 504.832q0-11.264-7.168-18.432t-18.432-7.168-18.432 7.168-7.168 18.432 7.168 18.432 18.432 7.168 18.432-7.168 7.168-18.432zM770.048 208.896l-648.192-1.024 0 423.936 647.168 0zM823.296 582.656q10.24 0 17.92-7.68t7.68-18.944-7.68-18.432-17.92-7.168q-11.264 0-18.944 7.168t-7.68 18.432 7.68 18.944 18.944 7.68zM874.496 633.856q11.264 0 18.432-7.168t7.168-18.432-7.168-18.432-18.432-7.168-18.432 7.168-7.168 18.432 7.168 18.432 18.432 7.168zM926.72 582.656q10.24 0 17.92-7.68t7.68-18.944-7.68-18.432-17.92-7.168q-11.264 0-18.944 7.168t-7.68 18.432 7.68 18.944 18.944 7.68z" p-id="4641"></path></svg>